M48
; DRILL file {KiCad (5.1.9-0-10_14)} date Sunday, April 11, 2021 at 08:07:56 PM
; FORMAT={-:-/ absolute / metric / decimal}
; #@! TF.CreationDate,2021-04-11T20:07:56+09:00
; #@! TF.GenerationSoftware,Kicad,Pcbnew,(5.1.9-0-10_14)
FMAT,2
METRIC
T1C0.305
T2C0.700
T3C0.800
T4C1.000
T5C0.750
T6C3.200
%
G90
G05
T1
X-25.85Y9.96
X-25.61Y-12.76
X-25.34Y-5.77
X-22.34Y1.62
X-20.16Y-1.31
X-19.3Y1.8
X-18.89Y-1.03
X-18.6Y0.25
X-18.56Y2.63
X-17.37Y-11.32
X-16.07Y5.17
X-13.5Y11.5
X-12.55Y2.16
X-11.91Y3.32
X-11.67Y-8.99
X-10.41Y4.05
X-9.67Y-4.44
X-6.91Y-1.18
X-5.49Y-0.72
X-4.96Y2.54
X-4.94Y1.58
X-4.21Y9.03
X-4.11Y10.22
X-3.36Y-5.93
X-2.97Y2.59
X-2.03Y-11.0
X-2.0Y-13.5
X15.0Y10.0
X15.0Y-10.0
X25.0Y10.0
X25.0Y0.0
X25.0Y-10.0
T2
X-14.0Y8.0
X-12.73Y8.0
X-11.46Y8.0
X-10.19Y8.0
X-8.92Y8.0
T3
X4.19Y3.81
X4.19Y1.27
X4.19Y-1.27
X4.19Y-3.81
X11.81Y3.81
X11.81Y1.27
X11.81Y-1.27
X11.81Y-3.81
T4
X-27.94Y13.5
X-20.32Y13.5
X-17.8Y13.5
X-7.62Y13.47
X-5.08Y13.47
X5.08Y13.47
X7.62Y13.47
X10.16Y13.47
X19.0Y5.54
X19.0Y2.77
X19.0Y0.0
X19.0Y-2.77
X19.0Y-5.54
X21.84Y4.155
X21.84Y1.385
X21.84Y-1.385
X21.84Y-4.155
T5
X2.0Y-10.1
X2.0Y-11.9
T6
X20.42Y12.5
X20.42Y-12.5
T0
M30
