G04 #@! TF.GenerationSoftware,KiCad,Pcbnew,(5.1.9-0-10_14)*
G04 #@! TF.CreationDate,2021-04-11T20:07:46+09:00*
G04 #@! TF.ProjectId,usbCAN,75736243-414e-42e6-9b69-6361645f7063,V1.0*
G04 #@! TF.SameCoordinates,Original*
G04 #@! TF.FileFunction,Copper,L2,Bot*
G04 #@! TF.FilePolarity,Positive*
%FSLAX46Y46*%
G04 Gerber Fmt 4.6, Leading zero omitted, Abs format (unit mm)*
G04 Created by KiCad (PCBNEW (5.1.9-0-10_14)) date 2021-04-11 20:07:46*
%MOMM*%
%LPD*%
G01*
G04 APERTURE LIST*
G04 #@! TA.AperFunction,ComponentPad*
%ADD10R,2.000000X2.000000*%
G04 #@! TD*
G04 #@! TA.AperFunction,ComponentPad*
%ADD11R,1.600000X1.600000*%
G04 #@! TD*
G04 #@! TA.AperFunction,ComponentPad*
%ADD12C,1.600000*%
G04 #@! TD*
G04 #@! TA.AperFunction,ComponentPad*
%ADD13O,1.600000X1.600000*%
G04 #@! TD*
G04 #@! TA.AperFunction,ComponentPad*
%ADD14R,1.000000X1.000000*%
G04 #@! TD*
G04 #@! TA.AperFunction,ComponentPad*
%ADD15O,1.000000X1.000000*%
G04 #@! TD*
G04 #@! TA.AperFunction,ViaPad*
%ADD16C,0.609600*%
G04 #@! TD*
G04 #@! TA.AperFunction,Conductor*
%ADD17C,0.203200*%
G04 #@! TD*
G04 #@! TA.AperFunction,Conductor*
%ADD18C,0.254000*%
G04 #@! TD*
G04 #@! TA.AperFunction,Conductor*
%ADD19C,0.100000*%
G04 #@! TD*
G04 APERTURE END LIST*
D10*
X-27940000Y13500000D03*
D11*
X19000000Y-5540000D03*
D12*
X19000000Y-2770000D03*
X19000000Y0D03*
X19000000Y2770000D03*
X19000000Y5540000D03*
X21840000Y-4155000D03*
X21840000Y-1385000D03*
X21840000Y1385000D03*
X21840000Y4155000D03*
D11*
X4190000Y3810000D03*
D13*
X11810000Y-3810000D03*
X4190000Y1270000D03*
X11810000Y-1270000D03*
X4190000Y-1270000D03*
X11810000Y1270000D03*
X4190000Y-3810000D03*
X11810000Y3810000D03*
D10*
X10160000Y13470000D03*
X-5080000Y13470000D03*
X-7620000Y13470000D03*
X-17800000Y13500000D03*
X-20320000Y13500000D03*
X7620000Y13470000D03*
X5080000Y13470000D03*
D14*
X-14000000Y8000000D03*
D15*
X-12730000Y8000000D03*
X-11460000Y8000000D03*
X-10190000Y8000000D03*
X-8920000Y8000000D03*
D16*
X-9670000Y-4440000D03*
X-11670000Y-8990000D03*
X-22340000Y1620000D03*
X-25850000Y9960000D03*
X-13500000Y11500000D03*
X-25610000Y-12760000D03*
X-2000000Y-13500000D03*
X25000000Y-10000000D03*
X25000000Y0D03*
X25000000Y10000000D03*
X15000000Y10000000D03*
X15000000Y-10000000D03*
X-18890000Y-1030000D03*
X-25340000Y-5770000D03*
X-4110000Y10220000D03*
X-16070000Y5170000D03*
X-19300000Y1800000D03*
X-18600000Y250000D03*
X-18560000Y2630000D03*
X-4210000Y9030000D03*
X-17370000Y-11320000D03*
X-6910000Y-1180000D03*
X-3360000Y-5930000D03*
X-5490000Y-720000D03*
X-2030000Y-11000000D03*
X-11910000Y3320000D03*
X-4940000Y1580000D03*
X-10410000Y4050000D03*
X-4960000Y2540000D03*
X-2970000Y2590000D03*
X-20160000Y-1310000D03*
X-12550000Y2160000D03*
D17*
X-9670000Y-6990000D02*
X-11670000Y-8990000D01*
X-9670000Y-4440000D02*
X-9670000Y-6990000D01*
X4190000Y1270000D02*
X2820000Y1270000D01*
X2820000Y1270000D02*
X250000Y-1300000D01*
X250000Y-1300000D02*
X250000Y-11170000D01*
X250000Y-11170000D02*
X-1240000Y-12660000D01*
X-8000000Y-12660000D02*
X-11670000Y-8990000D01*
X-1240000Y-12660000D02*
X-8000000Y-12660000D01*
X-22340000Y1620000D02*
X-22340000Y6450000D01*
X-22340000Y6450000D02*
X-25850000Y9960000D01*
X-23630000Y-5770000D02*
X-25340000Y-5770000D01*
X-20315000Y-2455000D02*
X-23630000Y-5770000D01*
X-20769601Y-2000399D02*
X-20315000Y-2455000D01*
X-18890000Y-1030000D02*
X-20315000Y-2455000D01*
X-16070000Y8860000D02*
X-16070000Y5170000D01*
X-16070000Y9470000D02*
X-16070000Y8860000D01*
X-15320000Y10220000D02*
X-16070000Y9470000D01*
X-4110000Y10220000D02*
X-15320000Y10220000D01*
X-20769601Y330399D02*
X-20769601Y-2000399D01*
X-19300000Y1800000D02*
X-20769601Y330399D01*
X-18560000Y290000D02*
X-18600000Y250000D01*
X-18560000Y2630000D02*
X-18560000Y290000D01*
X-11460000Y8851504D02*
X-11460000Y8000000D01*
X-10581504Y9730000D02*
X-11460000Y8851504D01*
X-4910000Y9730000D02*
X-10581504Y9730000D01*
X-4210000Y9030000D02*
X-4910000Y9730000D01*
X-17370000Y-10888948D02*
X-7661052Y-1180000D01*
X-7661052Y-1180000D02*
X-6910000Y-1180000D01*
X-17370000Y-11320000D02*
X-17370000Y-10888948D01*
X11810000Y-1270000D02*
X13020000Y-1270000D01*
X13020000Y-1270000D02*
X13600000Y-690000D01*
X13600000Y-690000D02*
X13600000Y4820000D01*
X7620000Y10800000D02*
X7620000Y13470000D01*
X13600000Y4820000D02*
X7620000Y10800000D01*
X11810000Y1270000D02*
X9920000Y1270000D01*
X5080000Y6110000D02*
X5080000Y13470000D01*
X9920000Y1270000D02*
X5080000Y6110000D01*
X-11790000Y5430000D02*
X-12730000Y6370000D01*
X-6947790Y5430000D02*
X-11790000Y5430000D01*
X-3360000Y1842210D02*
X-6947790Y5430000D01*
X-12730000Y6370000D02*
X-12730000Y8000000D01*
X-3360000Y-5930000D02*
X-3360000Y1842210D01*
X4190000Y3810000D02*
X4190000Y8470000D01*
X4190000Y8470000D02*
X1720000Y10940000D01*
X1720000Y10940000D02*
X-7020000Y10940000D01*
X-7620000Y11540000D02*
X-7620000Y13470000D01*
X-7020000Y10940000D02*
X-7620000Y11540000D01*
X-5490000Y-7540000D02*
X-2030000Y-11000000D01*
X-5490000Y-720000D02*
X-5490000Y-7540000D01*
X-20320000Y11730000D02*
X-20320000Y13500000D01*
X-6680000Y3320000D02*
X-11910000Y3320000D01*
X-4940000Y1580000D02*
X-6680000Y3320000D01*
X-11910000Y3320000D02*
X-16970000Y3320000D01*
X-20320000Y6670000D02*
X-20320000Y11730000D01*
X-16970000Y3320000D02*
X-20320000Y6670000D01*
X-6470000Y4050000D02*
X-10410000Y4050000D01*
X-4960000Y2540000D02*
X-6470000Y4050000D01*
X-17800000Y5130000D02*
X-17800000Y9784750D01*
X-16720000Y4050000D02*
X-17800000Y5130000D01*
X-17800000Y9784750D02*
X-17800000Y13500000D01*
X-10410000Y4050000D02*
X-16720000Y4050000D01*
X12914801Y739695D02*
X12914801Y2705199D01*
X12340305Y165199D02*
X12914801Y739695D01*
X10450051Y165199D02*
X12340305Y165199D01*
X12914801Y2705199D02*
X11810000Y3810000D01*
X8025250Y2590000D02*
X10450051Y165199D01*
X-2970000Y2590000D02*
X8025250Y2590000D01*
X-19209601Y-359601D02*
X-20160000Y-1310000D01*
X-15069601Y-359601D02*
X-19209601Y-359601D01*
X-12550000Y2160000D02*
X-15069601Y-359601D01*
D18*
X-21945812Y14624482D02*
X-21958072Y14500000D01*
X-21958072Y12500000D01*
X-21945812Y12375518D01*
X-21909502Y12255820D01*
X-21850537Y12145506D01*
X-21771185Y12048815D01*
X-21674494Y11969463D01*
X-21564180Y11910498D01*
X-21444482Y11874188D01*
X-21320000Y11861928D01*
X-21056600Y11861928D01*
X-21056600Y11693815D01*
X-21056599Y11693805D01*
X-21056600Y6706183D01*
X-21060164Y6670000D01*
X-21056600Y6633817D01*
X-21056600Y6633815D01*
X-21045942Y6525602D01*
X-21003822Y6386752D01*
X-20975526Y6333814D01*
X-20935424Y6258788D01*
X-20903367Y6219727D01*
X-20843375Y6146626D01*
X-20815268Y6123559D01*
X-18182629Y3490920D01*
X-18285871Y3533684D01*
X-18467438Y3569800D01*
X-18652562Y3569800D01*
X-18834129Y3533684D01*
X-19005162Y3462840D01*
X-19159087Y3359990D01*
X-19289990Y3229087D01*
X-19392840Y3075162D01*
X-19463684Y2904129D01*
X-19499800Y2722562D01*
X-19499800Y2718469D01*
X-19574129Y2703684D01*
X-19745162Y2632840D01*
X-19899087Y2529990D01*
X-20029990Y2399087D01*
X-20132840Y2245162D01*
X-20203684Y2074129D01*
X-20237479Y1904231D01*
X-21264869Y876840D01*
X-21292976Y853773D01*
X-21385025Y741611D01*
X-21453423Y613647D01*
X-21495543Y474797D01*
X-21504824Y380562D01*
X-21509765Y330399D01*
X-21506201Y294215D01*
X-21506200Y-1964206D01*
X-21509765Y-2000399D01*
X-21498004Y-2119800D01*
X-21495542Y-2144798D01*
X-21487365Y-2171753D01*
X-21453423Y-2283646D01*
X-21385025Y-2411611D01*
X-21352704Y-2450994D01*
X-23935109Y-5033400D01*
X-24750806Y-5033400D01*
X-24894838Y-4937160D01*
X-25065871Y-4866316D01*
X-25247438Y-4830200D01*
X-25432562Y-4830200D01*
X-25614129Y-4866316D01*
X-25785162Y-4937160D01*
X-25939087Y-5040010D01*
X-26069990Y-5170913D01*
X-26172840Y-5324838D01*
X-26243684Y-5495871D01*
X-26279800Y-5677438D01*
X-26279800Y-5862562D01*
X-26243684Y-6044129D01*
X-26172840Y-6215162D01*
X-26069990Y-6369087D01*
X-25939087Y-6499990D01*
X-25785162Y-6602840D01*
X-25614129Y-6673684D01*
X-25432562Y-6709800D01*
X-25247438Y-6709800D01*
X-25065871Y-6673684D01*
X-24894838Y-6602840D01*
X-24750806Y-6506600D01*
X-23666183Y-6506600D01*
X-23630000Y-6510164D01*
X-23593817Y-6506600D01*
X-23593814Y-6506600D01*
X-23485601Y-6495942D01*
X-23346751Y-6453822D01*
X-23218787Y-6385424D01*
X-23106625Y-6293375D01*
X-23083554Y-6265263D01*
X-19819731Y-3001441D01*
X-19791625Y-2978375D01*
X-19768554Y-2950263D01*
X-18785770Y-1967479D01*
X-18615871Y-1933684D01*
X-18444838Y-1862840D01*
X-18290913Y-1759990D01*
X-18160010Y-1629087D01*
X-18057160Y-1475162D01*
X-17986316Y-1304129D01*
X-17950200Y-1122562D01*
X-17950200Y-1096201D01*
X-15105784Y-1096201D01*
X-15069601Y-1099765D01*
X-15033418Y-1096201D01*
X-15033415Y-1096201D01*
X-14925202Y-1085543D01*
X-14786352Y-1043423D01*
X-14658388Y-975025D01*
X-14546226Y-882976D01*
X-14523155Y-854865D01*
X-12445769Y1222521D01*
X-12275871Y1256316D01*
X-12104838Y1327160D01*
X-11950913Y1430010D01*
X-11820010Y1560913D01*
X-11717160Y1714838D01*
X-11646316Y1885871D01*
X-11610200Y2067438D01*
X-11610200Y2252562D01*
X-11642510Y2414995D01*
X-11635871Y2416316D01*
X-11464838Y2487160D01*
X-11320806Y2583400D01*
X-6985109Y2583400D01*
X-5877479Y1475769D01*
X-5843684Y1305871D01*
X-5772840Y1134838D01*
X-5669990Y980913D01*
X-5539087Y850010D01*
X-5385162Y747160D01*
X-5214129Y676316D01*
X-5032562Y640200D01*
X-4847438Y640200D01*
X-4665871Y676316D01*
X-4494838Y747160D01*
X-4340913Y850010D01*
X-4210010Y980913D01*
X-4107160Y1134838D01*
X-4096599Y1160334D01*
X-4096600Y-5340805D01*
X-4192840Y-5484838D01*
X-4263684Y-5655871D01*
X-4299800Y-5837438D01*
X-4299800Y-6022562D01*
X-4263684Y-6204129D01*
X-4192840Y-6375162D01*
X-4089990Y-6529087D01*
X-3959087Y-6659990D01*
X-3805162Y-6762840D01*
X-3634129Y-6833684D01*
X-3452562Y-6869800D01*
X-3267438Y-6869800D01*
X-3085871Y-6833684D01*
X-2914838Y-6762840D01*
X-2760913Y-6659990D01*
X-2630010Y-6529087D01*
X-2527160Y-6375162D01*
X-2456316Y-6204129D01*
X-2420200Y-6022562D01*
X-2420200Y-5837438D01*
X-2456316Y-5655871D01*
X-2527160Y-5484838D01*
X-2623400Y-5340806D01*
X-2623400Y-1128665D01*
X2755000Y-1128665D01*
X2755000Y-1411335D01*
X2810147Y-1688574D01*
X2918320Y-1949727D01*
X3075363Y-2184759D01*
X3275241Y-2384637D01*
X3507759Y-2540000D01*
X3275241Y-2695363D01*
X3075363Y-2895241D01*
X2918320Y-3130273D01*
X2810147Y-3391426D01*
X2755000Y-3668665D01*
X2755000Y-3951335D01*
X2810147Y-4228574D01*
X2918320Y-4489727D01*
X3075363Y-4724759D01*
X3275241Y-4924637D01*
X3510273Y-5081680D01*
X3771426Y-5189853D01*
X4048665Y-5245000D01*
X4331335Y-5245000D01*
X4608574Y-5189853D01*
X4869727Y-5081680D01*
X5104759Y-4924637D01*
X5304637Y-4724759D01*
X5461680Y-4489727D01*
X5569853Y-4228574D01*
X5625000Y-3951335D01*
X5625000Y-3668665D01*
X5569853Y-3391426D01*
X5461680Y-3130273D01*
X5304637Y-2895241D01*
X5104759Y-2695363D01*
X4872241Y-2540000D01*
X5104759Y-2384637D01*
X5304637Y-2184759D01*
X5461680Y-1949727D01*
X5569853Y-1688574D01*
X5625000Y-1411335D01*
X5625000Y-1128665D01*
X5569853Y-851426D01*
X5461680Y-590273D01*
X5304637Y-355241D01*
X5104759Y-155363D01*
X4869727Y1680D01*
X4859135Y6067D01*
X5045131Y117615D01*
X5253519Y306586D01*
X5421037Y532580D01*
X5541246Y786913D01*
X5581904Y920961D01*
X5459915Y1143000D01*
X4317000Y1143000D01*
X4317000Y1123000D01*
X4063000Y1123000D01*
X4063000Y1143000D01*
X2920085Y1143000D01*
X2798096Y920961D01*
X2838754Y786913D01*
X2958963Y532580D01*
X3126481Y306586D01*
X3334869Y117615D01*
X3520865Y6067D01*
X3510273Y1680D01*
X3275241Y-155363D01*
X3075363Y-355241D01*
X2918320Y-590273D01*
X2810147Y-851426D01*
X2755000Y-1128665D01*
X-2623400Y-1128665D01*
X-2623400Y1716334D01*
X-2524838Y1757160D01*
X-2380806Y1853400D01*
X2886166Y1853400D01*
X2838754Y1753087D01*
X2798096Y1619039D01*
X2920085Y1397000D01*
X4063000Y1397000D01*
X4063000Y1417000D01*
X4317000Y1417000D01*
X4317000Y1397000D01*
X5459915Y1397000D01*
X5581904Y1619039D01*
X5541246Y1753087D01*
X5493834Y1853400D01*
X7720141Y1853400D01*
X9903605Y-330064D01*
X9926676Y-358176D01*
X10038838Y-450225D01*
X10166802Y-518623D01*
X10305652Y-560743D01*
X10413865Y-571401D01*
X10413874Y-571401D01*
X10450050Y-574964D01*
X10486226Y-571401D01*
X10550930Y-571401D01*
X10538320Y-590273D01*
X10430147Y-851426D01*
X10375000Y-1128665D01*
X10375000Y-1411335D01*
X10430147Y-1688574D01*
X10538320Y-1949727D01*
X10695363Y-2184759D01*
X10895241Y-2384637D01*
X11127759Y-2540000D01*
X10895241Y-2695363D01*
X10695363Y-2895241D01*
X10538320Y-3130273D01*
X10430147Y-3391426D01*
X10375000Y-3668665D01*
X10375000Y-3951335D01*
X10430147Y-4228574D01*
X10538320Y-4489727D01*
X10695363Y-4724759D01*
X10895241Y-4924637D01*
X11130273Y-5081680D01*
X11391426Y-5189853D01*
X11668665Y-5245000D01*
X11951335Y-5245000D01*
X12228574Y-5189853D01*
X12489727Y-5081680D01*
X12724759Y-4924637D01*
X12909396Y-4740000D01*
X17561928Y-4740000D01*
X17561928Y-6340000D01*
X17574188Y-6464482D01*
X17610498Y-6584180D01*
X17669463Y-6694494D01*
X17748815Y-6791185D01*
X17845506Y-6870537D01*
X17955820Y-6929502D01*
X18075518Y-6965812D01*
X18200000Y-6978072D01*
X19800000Y-6978072D01*
X19924482Y-6965812D01*
X20044180Y-6929502D01*
X20154494Y-6870537D01*
X20251185Y-6791185D01*
X20330537Y-6694494D01*
X20389502Y-6584180D01*
X20425812Y-6464482D01*
X20438072Y-6340000D01*
X20438072Y-4740000D01*
X20425812Y-4615518D01*
X20389502Y-4495820D01*
X20330537Y-4385506D01*
X20251185Y-4288815D01*
X20154494Y-4209463D01*
X20044180Y-4150498D01*
X19924482Y-4114188D01*
X19800000Y-4101928D01*
X19534275Y-4101928D01*
X19679727Y-4041680D01*
X19914759Y-3884637D01*
X20114637Y-3684759D01*
X20271680Y-3449727D01*
X20379853Y-3188574D01*
X20435000Y-2911335D01*
X20435000Y-2628665D01*
X20379853Y-2351426D01*
X20271680Y-2090273D01*
X20114637Y-1855241D01*
X19914759Y-1655363D01*
X19679727Y-1498320D01*
X19418574Y-1390147D01*
X19392699Y-1385000D01*
X19418574Y-1379853D01*
X19679727Y-1271680D01*
X19914759Y-1114637D01*
X20114637Y-914759D01*
X20271680Y-679727D01*
X20379853Y-418574D01*
X20435000Y-141335D01*
X20435000Y141335D01*
X20379853Y418574D01*
X20271680Y679727D01*
X20114637Y914759D01*
X19914759Y1114637D01*
X19679727Y1271680D01*
X19418574Y1379853D01*
X19392699Y1385000D01*
X19418574Y1390147D01*
X19679727Y1498320D01*
X19914759Y1655363D01*
X20114637Y1855241D01*
X20271680Y2090273D01*
X20379853Y2351426D01*
X20435000Y2628665D01*
X20435000Y2911335D01*
X20379853Y3188574D01*
X20271680Y3449727D01*
X20114637Y3684759D01*
X19914759Y3884637D01*
X19679727Y4041680D01*
X19418574Y4149853D01*
X19392699Y4155000D01*
X19418574Y4160147D01*
X19679727Y4268320D01*
X19721654Y4296335D01*
X20405000Y4296335D01*
X20405000Y4013665D01*
X20460147Y3736426D01*
X20568320Y3475273D01*
X20725363Y3240241D01*
X20925241Y3040363D01*
X21160273Y2883320D01*
X21421426Y2775147D01*
X21447301Y2770000D01*
X21421426Y2764853D01*
X21160273Y2656680D01*
X20925241Y2499637D01*
X20725363Y2299759D01*
X20568320Y2064727D01*
X20460147Y1803574D01*
X20405000Y1526335D01*
X20405000Y1243665D01*
X20460147Y966426D01*
X20568320Y705273D01*
X20725363Y470241D01*
X20925241Y270363D01*
X21160273Y113320D01*
X21421426Y5147D01*
X21447301Y0D01*
X21421426Y-5147D01*
X21160273Y-113320D01*
X20925241Y-270363D01*
X20725363Y-470241D01*
X20568320Y-705273D01*
X20460147Y-966426D01*
X20405000Y-1243665D01*
X20405000Y-1526335D01*
X20460147Y-1803574D01*
X20568320Y-2064727D01*
X20725363Y-2299759D01*
X20925241Y-2499637D01*
X21160273Y-2656680D01*
X21421426Y-2764853D01*
X21447301Y-2770000D01*
X21421426Y-2775147D01*
X21160273Y-2883320D01*
X20925241Y-3040363D01*
X20725363Y-3240241D01*
X20568320Y-3475273D01*
X20460147Y-3736426D01*
X20405000Y-4013665D01*
X20405000Y-4296335D01*
X20460147Y-4573574D01*
X20568320Y-4834727D01*
X20725363Y-5069759D01*
X20925241Y-5269637D01*
X21160273Y-5426680D01*
X21421426Y-5534853D01*
X21698665Y-5590000D01*
X21981335Y-5590000D01*
X22258574Y-5534853D01*
X22519727Y-5426680D01*
X22754759Y-5269637D01*
X22954637Y-5069759D01*
X23111680Y-4834727D01*
X23219853Y-4573574D01*
X23275000Y-4296335D01*
X23275000Y-4013665D01*
X23219853Y-3736426D01*
X23111680Y-3475273D01*
X22954637Y-3240241D01*
X22754759Y-3040363D01*
X22519727Y-2883320D01*
X22258574Y-2775147D01*
X22232699Y-2770000D01*
X22258574Y-2764853D01*
X22519727Y-2656680D01*
X22754759Y-2499637D01*
X22954637Y-2299759D01*
X23111680Y-2064727D01*
X23219853Y-1803574D01*
X23275000Y-1526335D01*
X23275000Y-1243665D01*
X23219853Y-966426D01*
X23111680Y-705273D01*
X22954637Y-470241D01*
X22754759Y-270363D01*
X22519727Y-113320D01*
X22258574Y-5147D01*
X22232699Y0D01*
X22258574Y5147D01*
X22519727Y113320D01*
X22754759Y270363D01*
X22954637Y470241D01*
X23111680Y705273D01*
X23219853Y966426D01*
X23275000Y1243665D01*
X23275000Y1526335D01*
X23219853Y1803574D01*
X23111680Y2064727D01*
X22954637Y2299759D01*
X22754759Y2499637D01*
X22519727Y2656680D01*
X22258574Y2764853D01*
X22232699Y2770000D01*
X22258574Y2775147D01*
X22519727Y2883320D01*
X22754759Y3040363D01*
X22954637Y3240241D01*
X23111680Y3475273D01*
X23219853Y3736426D01*
X23275000Y4013665D01*
X23275000Y4296335D01*
X23219853Y4573574D01*
X23111680Y4834727D01*
X22954637Y5069759D01*
X22754759Y5269637D01*
X22519727Y5426680D01*
X22258574Y5534853D01*
X21981335Y5590000D01*
X21698665Y5590000D01*
X21421426Y5534853D01*
X21160273Y5426680D01*
X20925241Y5269637D01*
X20725363Y5069759D01*
X20568320Y4834727D01*
X20460147Y4573574D01*
X20405000Y4296335D01*
X19721654Y4296335D01*
X19914759Y4425363D01*
X20114637Y4625241D01*
X20271680Y4860273D01*
X20379853Y5121426D01*
X20435000Y5398665D01*
X20435000Y5681335D01*
X20379853Y5958574D01*
X20271680Y6219727D01*
X20114637Y6454759D01*
X19914759Y6654637D01*
X19679727Y6811680D01*
X19418574Y6919853D01*
X19141335Y6975000D01*
X18858665Y6975000D01*
X18581426Y6919853D01*
X18320273Y6811680D01*
X18085241Y6654637D01*
X17885363Y6454759D01*
X17728320Y6219727D01*
X17620147Y5958574D01*
X17565000Y5681335D01*
X17565000Y5398665D01*
X17620147Y5121426D01*
X17728320Y4860273D01*
X17885363Y4625241D01*
X18085241Y4425363D01*
X18320273Y4268320D01*
X18581426Y4160147D01*
X18607301Y4155000D01*
X18581426Y4149853D01*
X18320273Y4041680D01*
X18085241Y3884637D01*
X17885363Y3684759D01*
X17728320Y3449727D01*
X17620147Y3188574D01*
X17565000Y2911335D01*
X17565000Y2628665D01*
X17620147Y2351426D01*
X17728320Y2090273D01*
X17885363Y1855241D01*
X18085241Y1655363D01*
X18320273Y1498320D01*
X18581426Y1390147D01*
X18607301Y1385000D01*
X18581426Y1379853D01*
X18320273Y1271680D01*
X18085241Y1114637D01*
X17885363Y914759D01*
X17728320Y679727D01*
X17620147Y418574D01*
X17565000Y141335D01*
X17565000Y-141335D01*
X17620147Y-418574D01*
X17728320Y-679727D01*
X17885363Y-914759D01*
X18085241Y-1114637D01*
X18320273Y-1271680D01*
X18581426Y-1379853D01*
X18607301Y-1385000D01*
X18581426Y-1390147D01*
X18320273Y-1498320D01*
X18085241Y-1655363D01*
X17885363Y-1855241D01*
X17728320Y-2090273D01*
X17620147Y-2351426D01*
X17565000Y-2628665D01*
X17565000Y-2911335D01*
X17620147Y-3188574D01*
X17728320Y-3449727D01*
X17885363Y-3684759D01*
X18085241Y-3884637D01*
X18320273Y-4041680D01*
X18465725Y-4101928D01*
X18200000Y-4101928D01*
X18075518Y-4114188D01*
X17955820Y-4150498D01*
X17845506Y-4209463D01*
X17748815Y-4288815D01*
X17669463Y-4385506D01*
X17610498Y-4495820D01*
X17574188Y-4615518D01*
X17561928Y-4740000D01*
X12909396Y-4740000D01*
X12924637Y-4724759D01*
X13081680Y-4489727D01*
X13189853Y-4228574D01*
X13245000Y-3951335D01*
X13245000Y-3668665D01*
X13189853Y-3391426D01*
X13081680Y-3130273D01*
X12924637Y-2895241D01*
X12724759Y-2695363D01*
X12492241Y-2540000D01*
X12724759Y-2384637D01*
X12924637Y-2184759D01*
X13042798Y-2007918D01*
X13056183Y-2006600D01*
X13056186Y-2006600D01*
X13164399Y-1995942D01*
X13303249Y-1953822D01*
X13431213Y-1885424D01*
X13543375Y-1793375D01*
X13566445Y-1765264D01*
X14095273Y-1236437D01*
X14123374Y-1213375D01*
X14146437Y-1185273D01*
X14146442Y-1185268D01*
X14215424Y-1101213D01*
X14250494Y-1035601D01*
X14283822Y-973249D01*
X14325942Y-834399D01*
X14336600Y-726186D01*
X14336600Y-726185D01*
X14340164Y-690000D01*
X14336600Y-653814D01*
X14336600Y4783825D01*
X14340163Y4820001D01*
X14336600Y4856177D01*
X14336600Y4856186D01*
X14325942Y4964399D01*
X14283822Y5103249D01*
X14215424Y5231213D01*
X14123375Y5343375D01*
X14095269Y5366441D01*
X8356600Y11105109D01*
X8356600Y11831928D01*
X8620000Y11831928D01*
X8744482Y11844188D01*
X8864180Y11880498D01*
X8890000Y11894299D01*
X8915820Y11880498D01*
X9035518Y11844188D01*
X9160000Y11831928D01*
X11160000Y11831928D01*
X11284482Y11844188D01*
X11404180Y11880498D01*
X11514494Y11939463D01*
X11611185Y12018815D01*
X11690537Y12115506D01*
X11749502Y12225820D01*
X11785812Y12345518D01*
X11798072Y12470000D01*
X11798072Y12720128D01*
X18185000Y12720128D01*
X18185000Y12279872D01*
X18270890Y11848075D01*
X18439369Y11441331D01*
X18683962Y11075271D01*
X18995271Y10763962D01*
X19361331Y10519369D01*
X19768075Y10350890D01*
X20199872Y10265000D01*
X20640128Y10265000D01*
X21071925Y10350890D01*
X21478669Y10519369D01*
X21844729Y10763962D01*
X22156038Y11075271D01*
X22400631Y11441331D01*
X22569110Y11848075D01*
X22655000Y12279872D01*
X22655000Y12720128D01*
X22569110Y13151925D01*
X22400631Y13558669D01*
X22156038Y13924729D01*
X21844729Y14236038D01*
X21478669Y14480631D01*
X21071925Y14649110D01*
X20640128Y14735000D01*
X20199872Y14735000D01*
X19768075Y14649110D01*
X19361331Y14480631D01*
X18995271Y14236038D01*
X18683962Y13924729D01*
X18439369Y13558669D01*
X18270890Y13151925D01*
X18185000Y12720128D01*
X11798072Y12720128D01*
X11798072Y14470000D01*
X11785812Y14594482D01*
X11749502Y14714180D01*
X11735701Y14740000D01*
X28967721Y14740000D01*
X29065424Y14730420D01*
X29128356Y14711420D01*
X29186405Y14680555D01*
X29237343Y14639011D01*
X29279248Y14588356D01*
X29310515Y14530529D01*
X29329956Y14467728D01*
X29340000Y14372165D01*
X29340001Y-14367711D01*
X29330420Y-14465424D01*
X29311420Y-14528357D01*
X29280554Y-14586406D01*
X29239011Y-14637343D01*
X29188356Y-14679248D01*
X29130529Y-14710515D01*
X29067728Y-14729956D01*
X28972165Y-14740000D01*
X-28967721Y-14740000D01*
X-29065424Y-14730420D01*
X-29128357Y-14711420D01*
X-29186406Y-14680554D01*
X-29237343Y-14639011D01*
X-29279248Y-14588356D01*
X-29310515Y-14530529D01*
X-29329956Y-14467728D01*
X-29340000Y-14372165D01*
X-29340000Y-11227438D01*
X-18309800Y-11227438D01*
X-18309800Y-11412562D01*
X-18273684Y-11594129D01*
X-18202840Y-11765162D01*
X-18099990Y-11919087D01*
X-17969087Y-12049990D01*
X-17815162Y-12152840D01*
X-17644129Y-12223684D01*
X-17462562Y-12259800D01*
X-17277438Y-12259800D01*
X-17095871Y-12223684D01*
X-16924838Y-12152840D01*
X-16770913Y-12049990D01*
X-16640010Y-11919087D01*
X-16537160Y-11765162D01*
X-16466316Y-11594129D01*
X-16430200Y-11412562D01*
X-16430200Y-11227438D01*
X-16466316Y-11045871D01*
X-16471851Y-11032508D01*
X-7413321Y-1973979D01*
X-7355162Y-2012840D01*
X-7184129Y-2083684D01*
X-7002562Y-2119800D01*
X-6817438Y-2119800D01*
X-6635871Y-2083684D01*
X-6464838Y-2012840D01*
X-6310913Y-1909990D01*
X-6226600Y-1825677D01*
X-6226599Y-7503807D01*
X-6230164Y-7540000D01*
X-6217208Y-7671532D01*
X-6215941Y-7684399D01*
X-6173821Y-7823249D01*
X-6105423Y-7951213D01*
X-6013374Y-8063375D01*
X-5985268Y-8086441D01*
X-2967479Y-11104231D01*
X-2933684Y-11274129D01*
X-2862840Y-11445162D01*
X-2759990Y-11599087D01*
X-2629087Y-11729990D01*
X-2475162Y-11832840D01*
X-2304129Y-11903684D01*
X-2122562Y-11939800D01*
X-1937438Y-11939800D01*
X-1755871Y-11903684D01*
X-1584838Y-11832840D01*
X-1430913Y-11729990D01*
X-1300010Y-11599087D01*
X-1197160Y-11445162D01*
X-1126316Y-11274129D01*
X-1090200Y-11092562D01*
X-1090200Y-10907438D01*
X-1126316Y-10725871D01*
X-1197160Y-10554838D01*
X-1300010Y-10400913D01*
X-1430913Y-10270010D01*
X-1584838Y-10167160D01*
X-1755871Y-10096316D01*
X-1925769Y-10062521D01*
X-1987766Y-10000524D01*
X990000Y-10000524D01*
X990000Y-10199476D01*
X1028814Y-10394606D01*
X1104950Y-10578414D01*
X1215482Y-10743837D01*
X1356163Y-10884518D01*
X1521586Y-10995050D01*
X1533536Y-11000000D01*
X1521586Y-11004950D01*
X1356163Y-11115482D01*
X1215482Y-11256163D01*
X1104950Y-11421586D01*
X1028814Y-11605394D01*
X990000Y-11800524D01*
X990000Y-11999476D01*
X1028814Y-12194606D01*
X1104950Y-12378414D01*
X1215482Y-12543837D01*
X1356163Y-12684518D01*
X1521586Y-12795050D01*
X1705394Y-12871186D01*
X1900524Y-12910000D01*
X2099476Y-12910000D01*
X2294606Y-12871186D01*
X2478414Y-12795050D01*
X2643837Y-12684518D01*
X2784518Y-12543837D01*
X2895050Y-12378414D01*
X2935867Y-12279872D01*
X18185000Y-12279872D01*
X18185000Y-12720128D01*
X18270890Y-13151925D01*
X18439369Y-13558669D01*
X18683962Y-13924729D01*
X18995271Y-14236038D01*
X19361331Y-14480631D01*
X19768075Y-14649110D01*
X20199872Y-14735000D01*
X20640128Y-14735000D01*
X21071925Y-14649110D01*
X21478669Y-14480631D01*
X21844729Y-14236038D01*
X22156038Y-13924729D01*
X22400631Y-13558669D01*
X22569110Y-13151925D01*
X22655000Y-12720128D01*
X22655000Y-12279872D01*
X22569110Y-11848075D01*
X22400631Y-11441331D01*
X22156038Y-11075271D01*
X21844729Y-10763962D01*
X21478669Y-10519369D01*
X21071925Y-10350890D01*
X20640128Y-10265000D01*
X20199872Y-10265000D01*
X19768075Y-10350890D01*
X19361331Y-10519369D01*
X18995271Y-10763962D01*
X18683962Y-11075271D01*
X18439369Y-11441331D01*
X18270890Y-11848075D01*
X18185000Y-12279872D01*
X2935867Y-12279872D01*
X2971186Y-12194606D01*
X3010000Y-11999476D01*
X3010000Y-11800524D01*
X2971186Y-11605394D01*
X2895050Y-11421586D01*
X2784518Y-11256163D01*
X2643837Y-11115482D01*
X2478414Y-11004950D01*
X2466464Y-11000000D01*
X2478414Y-10995050D01*
X2643837Y-10884518D01*
X2784518Y-10743837D01*
X2895050Y-10578414D01*
X2971186Y-10394606D01*
X3010000Y-10199476D01*
X3010000Y-10000524D01*
X2971186Y-9805394D01*
X2895050Y-9621586D01*
X2784518Y-9456163D01*
X2643837Y-9315482D01*
X2478414Y-9204950D01*
X2294606Y-9128814D01*
X2099476Y-9090000D01*
X1900524Y-9090000D01*
X1705394Y-9128814D01*
X1521586Y-9204950D01*
X1356163Y-9315482D01*
X1215482Y-9456163D01*
X1104950Y-9621586D01*
X1028814Y-9805394D01*
X990000Y-10000524D01*
X-1987766Y-10000524D01*
X-4753400Y-7234891D01*
X-4753400Y-1309194D01*
X-4657160Y-1165162D01*
X-4586316Y-994129D01*
X-4550200Y-812562D01*
X-4550200Y-627438D01*
X-4586316Y-445871D01*
X-4657160Y-274838D01*
X-4760010Y-120913D01*
X-4890913Y9990D01*
X-5044838Y112840D01*
X-5215871Y183684D01*
X-5397438Y219800D01*
X-5582562Y219800D01*
X-5764129Y183684D01*
X-5935162Y112840D01*
X-6089087Y9990D01*
X-6219990Y-120913D01*
X-6322840Y-274838D01*
X-6377084Y-405796D01*
X-6464838Y-347160D01*
X-6635871Y-276316D01*
X-6817438Y-240200D01*
X-7002562Y-240200D01*
X-7184129Y-276316D01*
X-7355162Y-347160D01*
X-7499194Y-443400D01*
X-7624866Y-443400D01*
X-7661052Y-439836D01*
X-7697238Y-443400D01*
X-7805451Y-454058D01*
X-7944301Y-496178D01*
X-8033878Y-544058D01*
X-8072265Y-564576D01*
X-8138322Y-618788D01*
X-8184427Y-656625D01*
X-8207493Y-684731D01*
X-17865268Y-10342507D01*
X-17893374Y-10365573D01*
X-17985424Y-10477735D01*
X-18053822Y-10605699D01*
X-18083887Y-10704810D01*
X-18099990Y-10720913D01*
X-18202840Y-10874838D01*
X-18273684Y-11045871D01*
X-18309800Y-11227438D01*
X-29340000Y-11227438D01*
X-29340000Y12006809D01*
X-29294494Y11969463D01*
X-29184180Y11910498D01*
X-29064482Y11874188D01*
X-28940000Y11861928D01*
X-28225750Y11865000D01*
X-28067000Y12023750D01*
X-28067000Y13373000D01*
X-27813000Y13373000D01*
X-27813000Y12023750D01*
X-27654250Y11865000D01*
X-26940000Y11861928D01*
X-26815518Y11874188D01*
X-26695820Y11910498D01*
X-26585506Y11969463D01*
X-26488815Y12048815D01*
X-26409463Y12145506D01*
X-26350498Y12255820D01*
X-26314188Y12375518D01*
X-26301928Y12500000D01*
X-26305000Y13214250D01*
X-26463750Y13373000D01*
X-27813000Y13373000D01*
X-28067000Y13373000D01*
X-28087000Y13373000D01*
X-28087000Y13627000D01*
X-28067000Y13627000D01*
X-28067000Y13647000D01*
X-27813000Y13647000D01*
X-27813000Y13627000D01*
X-26463750Y13627000D01*
X-26305000Y13785750D01*
X-26301928Y14500000D01*
X-26314188Y14624482D01*
X-26349230Y14740000D01*
X-21910770Y14740000D01*
X-21945812Y14624482D01*
G04 #@! TA.AperFunction,Conductor*
D19*
G36*
X-21945812Y14624482D02*
G01*
X-21958072Y14500000D01*
X-21958072Y12500000D01*
X-21945812Y12375518D01*
X-21909502Y12255820D01*
X-21850537Y12145506D01*
X-21771185Y12048815D01*
X-21674494Y11969463D01*
X-21564180Y11910498D01*
X-21444482Y11874188D01*
X-21320000Y11861928D01*
X-21056600Y11861928D01*
X-21056600Y11693815D01*
X-21056599Y11693805D01*
X-21056600Y6706183D01*
X-21060164Y6670000D01*
X-21056600Y6633817D01*
X-21056600Y6633815D01*
X-21045942Y6525602D01*
X-21003822Y6386752D01*
X-20975526Y6333814D01*
X-20935424Y6258788D01*
X-20903367Y6219727D01*
X-20843375Y6146626D01*
X-20815268Y6123559D01*
X-18182629Y3490920D01*
X-18285871Y3533684D01*
X-18467438Y3569800D01*
X-18652562Y3569800D01*
X-18834129Y3533684D01*
X-19005162Y3462840D01*
X-19159087Y3359990D01*
X-19289990Y3229087D01*
X-19392840Y3075162D01*
X-19463684Y2904129D01*
X-19499800Y2722562D01*
X-19499800Y2718469D01*
X-19574129Y2703684D01*
X-19745162Y2632840D01*
X-19899087Y2529990D01*
X-20029990Y2399087D01*
X-20132840Y2245162D01*
X-20203684Y2074129D01*
X-20237479Y1904231D01*
X-21264869Y876840D01*
X-21292976Y853773D01*
X-21385025Y741611D01*
X-21453423Y613647D01*
X-21495543Y474797D01*
X-21504824Y380562D01*
X-21509765Y330399D01*
X-21506201Y294215D01*
X-21506200Y-1964206D01*
X-21509765Y-2000399D01*
X-21498004Y-2119800D01*
X-21495542Y-2144798D01*
X-21487365Y-2171753D01*
X-21453423Y-2283646D01*
X-21385025Y-2411611D01*
X-21352704Y-2450994D01*
X-23935109Y-5033400D01*
X-24750806Y-5033400D01*
X-24894838Y-4937160D01*
X-25065871Y-4866316D01*
X-25247438Y-4830200D01*
X-25432562Y-4830200D01*
X-25614129Y-4866316D01*
X-25785162Y-4937160D01*
X-25939087Y-5040010D01*
X-26069990Y-5170913D01*
X-26172840Y-5324838D01*
X-26243684Y-5495871D01*
X-26279800Y-5677438D01*
X-26279800Y-5862562D01*
X-26243684Y-6044129D01*
X-26172840Y-6215162D01*
X-26069990Y-6369087D01*
X-25939087Y-6499990D01*
X-25785162Y-6602840D01*
X-25614129Y-6673684D01*
X-25432562Y-6709800D01*
X-25247438Y-6709800D01*
X-25065871Y-6673684D01*
X-24894838Y-6602840D01*
X-24750806Y-6506600D01*
X-23666183Y-6506600D01*
X-23630000Y-6510164D01*
X-23593817Y-6506600D01*
X-23593814Y-6506600D01*
X-23485601Y-6495942D01*
X-23346751Y-6453822D01*
X-23218787Y-6385424D01*
X-23106625Y-6293375D01*
X-23083554Y-6265263D01*
X-19819731Y-3001441D01*
X-19791625Y-2978375D01*
X-19768554Y-2950263D01*
X-18785770Y-1967479D01*
X-18615871Y-1933684D01*
X-18444838Y-1862840D01*
X-18290913Y-1759990D01*
X-18160010Y-1629087D01*
X-18057160Y-1475162D01*
X-17986316Y-1304129D01*
X-17950200Y-1122562D01*
X-17950200Y-1096201D01*
X-15105784Y-1096201D01*
X-15069601Y-1099765D01*
X-15033418Y-1096201D01*
X-15033415Y-1096201D01*
X-14925202Y-1085543D01*
X-14786352Y-1043423D01*
X-14658388Y-975025D01*
X-14546226Y-882976D01*
X-14523155Y-854865D01*
X-12445769Y1222521D01*
X-12275871Y1256316D01*
X-12104838Y1327160D01*
X-11950913Y1430010D01*
X-11820010Y1560913D01*
X-11717160Y1714838D01*
X-11646316Y1885871D01*
X-11610200Y2067438D01*
X-11610200Y2252562D01*
X-11642510Y2414995D01*
X-11635871Y2416316D01*
X-11464838Y2487160D01*
X-11320806Y2583400D01*
X-6985109Y2583400D01*
X-5877479Y1475769D01*
X-5843684Y1305871D01*
X-5772840Y1134838D01*
X-5669990Y980913D01*
X-5539087Y850010D01*
X-5385162Y747160D01*
X-5214129Y676316D01*
X-5032562Y640200D01*
X-4847438Y640200D01*
X-4665871Y676316D01*
X-4494838Y747160D01*
X-4340913Y850010D01*
X-4210010Y980913D01*
X-4107160Y1134838D01*
X-4096599Y1160334D01*
X-4096600Y-5340805D01*
X-4192840Y-5484838D01*
X-4263684Y-5655871D01*
X-4299800Y-5837438D01*
X-4299800Y-6022562D01*
X-4263684Y-6204129D01*
X-4192840Y-6375162D01*
X-4089990Y-6529087D01*
X-3959087Y-6659990D01*
X-3805162Y-6762840D01*
X-3634129Y-6833684D01*
X-3452562Y-6869800D01*
X-3267438Y-6869800D01*
X-3085871Y-6833684D01*
X-2914838Y-6762840D01*
X-2760913Y-6659990D01*
X-2630010Y-6529087D01*
X-2527160Y-6375162D01*
X-2456316Y-6204129D01*
X-2420200Y-6022562D01*
X-2420200Y-5837438D01*
X-2456316Y-5655871D01*
X-2527160Y-5484838D01*
X-2623400Y-5340806D01*
X-2623400Y-1128665D01*
X2755000Y-1128665D01*
X2755000Y-1411335D01*
X2810147Y-1688574D01*
X2918320Y-1949727D01*
X3075363Y-2184759D01*
X3275241Y-2384637D01*
X3507759Y-2540000D01*
X3275241Y-2695363D01*
X3075363Y-2895241D01*
X2918320Y-3130273D01*
X2810147Y-3391426D01*
X2755000Y-3668665D01*
X2755000Y-3951335D01*
X2810147Y-4228574D01*
X2918320Y-4489727D01*
X3075363Y-4724759D01*
X3275241Y-4924637D01*
X3510273Y-5081680D01*
X3771426Y-5189853D01*
X4048665Y-5245000D01*
X4331335Y-5245000D01*
X4608574Y-5189853D01*
X4869727Y-5081680D01*
X5104759Y-4924637D01*
X5304637Y-4724759D01*
X5461680Y-4489727D01*
X5569853Y-4228574D01*
X5625000Y-3951335D01*
X5625000Y-3668665D01*
X5569853Y-3391426D01*
X5461680Y-3130273D01*
X5304637Y-2895241D01*
X5104759Y-2695363D01*
X4872241Y-2540000D01*
X5104759Y-2384637D01*
X5304637Y-2184759D01*
X5461680Y-1949727D01*
X5569853Y-1688574D01*
X5625000Y-1411335D01*
X5625000Y-1128665D01*
X5569853Y-851426D01*
X5461680Y-590273D01*
X5304637Y-355241D01*
X5104759Y-155363D01*
X4869727Y1680D01*
X4859135Y6067D01*
X5045131Y117615D01*
X5253519Y306586D01*
X5421037Y532580D01*
X5541246Y786913D01*
X5581904Y920961D01*
X5459915Y1143000D01*
X4317000Y1143000D01*
X4317000Y1123000D01*
X4063000Y1123000D01*
X4063000Y1143000D01*
X2920085Y1143000D01*
X2798096Y920961D01*
X2838754Y786913D01*
X2958963Y532580D01*
X3126481Y306586D01*
X3334869Y117615D01*
X3520865Y6067D01*
X3510273Y1680D01*
X3275241Y-155363D01*
X3075363Y-355241D01*
X2918320Y-590273D01*
X2810147Y-851426D01*
X2755000Y-1128665D01*
X-2623400Y-1128665D01*
X-2623400Y1716334D01*
X-2524838Y1757160D01*
X-2380806Y1853400D01*
X2886166Y1853400D01*
X2838754Y1753087D01*
X2798096Y1619039D01*
X2920085Y1397000D01*
X4063000Y1397000D01*
X4063000Y1417000D01*
X4317000Y1417000D01*
X4317000Y1397000D01*
X5459915Y1397000D01*
X5581904Y1619039D01*
X5541246Y1753087D01*
X5493834Y1853400D01*
X7720141Y1853400D01*
X9903605Y-330064D01*
X9926676Y-358176D01*
X10038838Y-450225D01*
X10166802Y-518623D01*
X10305652Y-560743D01*
X10413865Y-571401D01*
X10413874Y-571401D01*
X10450050Y-574964D01*
X10486226Y-571401D01*
X10550930Y-571401D01*
X10538320Y-590273D01*
X10430147Y-851426D01*
X10375000Y-1128665D01*
X10375000Y-1411335D01*
X10430147Y-1688574D01*
X10538320Y-1949727D01*
X10695363Y-2184759D01*
X10895241Y-2384637D01*
X11127759Y-2540000D01*
X10895241Y-2695363D01*
X10695363Y-2895241D01*
X10538320Y-3130273D01*
X10430147Y-3391426D01*
X10375000Y-3668665D01*
X10375000Y-3951335D01*
X10430147Y-4228574D01*
X10538320Y-4489727D01*
X10695363Y-4724759D01*
X10895241Y-4924637D01*
X11130273Y-5081680D01*
X11391426Y-5189853D01*
X11668665Y-5245000D01*
X11951335Y-5245000D01*
X12228574Y-5189853D01*
X12489727Y-5081680D01*
X12724759Y-4924637D01*
X12909396Y-4740000D01*
X17561928Y-4740000D01*
X17561928Y-6340000D01*
X17574188Y-6464482D01*
X17610498Y-6584180D01*
X17669463Y-6694494D01*
X17748815Y-6791185D01*
X17845506Y-6870537D01*
X17955820Y-6929502D01*
X18075518Y-6965812D01*
X18200000Y-6978072D01*
X19800000Y-6978072D01*
X19924482Y-6965812D01*
X20044180Y-6929502D01*
X20154494Y-6870537D01*
X20251185Y-6791185D01*
X20330537Y-6694494D01*
X20389502Y-6584180D01*
X20425812Y-6464482D01*
X20438072Y-6340000D01*
X20438072Y-4740000D01*
X20425812Y-4615518D01*
X20389502Y-4495820D01*
X20330537Y-4385506D01*
X20251185Y-4288815D01*
X20154494Y-4209463D01*
X20044180Y-4150498D01*
X19924482Y-4114188D01*
X19800000Y-4101928D01*
X19534275Y-4101928D01*
X19679727Y-4041680D01*
X19914759Y-3884637D01*
X20114637Y-3684759D01*
X20271680Y-3449727D01*
X20379853Y-3188574D01*
X20435000Y-2911335D01*
X20435000Y-2628665D01*
X20379853Y-2351426D01*
X20271680Y-2090273D01*
X20114637Y-1855241D01*
X19914759Y-1655363D01*
X19679727Y-1498320D01*
X19418574Y-1390147D01*
X19392699Y-1385000D01*
X19418574Y-1379853D01*
X19679727Y-1271680D01*
X19914759Y-1114637D01*
X20114637Y-914759D01*
X20271680Y-679727D01*
X20379853Y-418574D01*
X20435000Y-141335D01*
X20435000Y141335D01*
X20379853Y418574D01*
X20271680Y679727D01*
X20114637Y914759D01*
X19914759Y1114637D01*
X19679727Y1271680D01*
X19418574Y1379853D01*
X19392699Y1385000D01*
X19418574Y1390147D01*
X19679727Y1498320D01*
X19914759Y1655363D01*
X20114637Y1855241D01*
X20271680Y2090273D01*
X20379853Y2351426D01*
X20435000Y2628665D01*
X20435000Y2911335D01*
X20379853Y3188574D01*
X20271680Y3449727D01*
X20114637Y3684759D01*
X19914759Y3884637D01*
X19679727Y4041680D01*
X19418574Y4149853D01*
X19392699Y4155000D01*
X19418574Y4160147D01*
X19679727Y4268320D01*
X19721654Y4296335D01*
X20405000Y4296335D01*
X20405000Y4013665D01*
X20460147Y3736426D01*
X20568320Y3475273D01*
X20725363Y3240241D01*
X20925241Y3040363D01*
X21160273Y2883320D01*
X21421426Y2775147D01*
X21447301Y2770000D01*
X21421426Y2764853D01*
X21160273Y2656680D01*
X20925241Y2499637D01*
X20725363Y2299759D01*
X20568320Y2064727D01*
X20460147Y1803574D01*
X20405000Y1526335D01*
X20405000Y1243665D01*
X20460147Y966426D01*
X20568320Y705273D01*
X20725363Y470241D01*
X20925241Y270363D01*
X21160273Y113320D01*
X21421426Y5147D01*
X21447301Y0D01*
X21421426Y-5147D01*
X21160273Y-113320D01*
X20925241Y-270363D01*
X20725363Y-470241D01*
X20568320Y-705273D01*
X20460147Y-966426D01*
X20405000Y-1243665D01*
X20405000Y-1526335D01*
X20460147Y-1803574D01*
X20568320Y-2064727D01*
X20725363Y-2299759D01*
X20925241Y-2499637D01*
X21160273Y-2656680D01*
X21421426Y-2764853D01*
X21447301Y-2770000D01*
X21421426Y-2775147D01*
X21160273Y-2883320D01*
X20925241Y-3040363D01*
X20725363Y-3240241D01*
X20568320Y-3475273D01*
X20460147Y-3736426D01*
X20405000Y-4013665D01*
X20405000Y-4296335D01*
X20460147Y-4573574D01*
X20568320Y-4834727D01*
X20725363Y-5069759D01*
X20925241Y-5269637D01*
X21160273Y-5426680D01*
X21421426Y-5534853D01*
X21698665Y-5590000D01*
X21981335Y-5590000D01*
X22258574Y-5534853D01*
X22519727Y-5426680D01*
X22754759Y-5269637D01*
X22954637Y-5069759D01*
X23111680Y-4834727D01*
X23219853Y-4573574D01*
X23275000Y-4296335D01*
X23275000Y-4013665D01*
X23219853Y-3736426D01*
X23111680Y-3475273D01*
X22954637Y-3240241D01*
X22754759Y-3040363D01*
X22519727Y-2883320D01*
X22258574Y-2775147D01*
X22232699Y-2770000D01*
X22258574Y-2764853D01*
X22519727Y-2656680D01*
X22754759Y-2499637D01*
X22954637Y-2299759D01*
X23111680Y-2064727D01*
X23219853Y-1803574D01*
X23275000Y-1526335D01*
X23275000Y-1243665D01*
X23219853Y-966426D01*
X23111680Y-705273D01*
X22954637Y-470241D01*
X22754759Y-270363D01*
X22519727Y-113320D01*
X22258574Y-5147D01*
X22232699Y0D01*
X22258574Y5147D01*
X22519727Y113320D01*
X22754759Y270363D01*
X22954637Y470241D01*
X23111680Y705273D01*
X23219853Y966426D01*
X23275000Y1243665D01*
X23275000Y1526335D01*
X23219853Y1803574D01*
X23111680Y2064727D01*
X22954637Y2299759D01*
X22754759Y2499637D01*
X22519727Y2656680D01*
X22258574Y2764853D01*
X22232699Y2770000D01*
X22258574Y2775147D01*
X22519727Y2883320D01*
X22754759Y3040363D01*
X22954637Y3240241D01*
X23111680Y3475273D01*
X23219853Y3736426D01*
X23275000Y4013665D01*
X23275000Y4296335D01*
X23219853Y4573574D01*
X23111680Y4834727D01*
X22954637Y5069759D01*
X22754759Y5269637D01*
X22519727Y5426680D01*
X22258574Y5534853D01*
X21981335Y5590000D01*
X21698665Y5590000D01*
X21421426Y5534853D01*
X21160273Y5426680D01*
X20925241Y5269637D01*
X20725363Y5069759D01*
X20568320Y4834727D01*
X20460147Y4573574D01*
X20405000Y4296335D01*
X19721654Y4296335D01*
X19914759Y4425363D01*
X20114637Y4625241D01*
X20271680Y4860273D01*
X20379853Y5121426D01*
X20435000Y5398665D01*
X20435000Y5681335D01*
X20379853Y5958574D01*
X20271680Y6219727D01*
X20114637Y6454759D01*
X19914759Y6654637D01*
X19679727Y6811680D01*
X19418574Y6919853D01*
X19141335Y6975000D01*
X18858665Y6975000D01*
X18581426Y6919853D01*
X18320273Y6811680D01*
X18085241Y6654637D01*
X17885363Y6454759D01*
X17728320Y6219727D01*
X17620147Y5958574D01*
X17565000Y5681335D01*
X17565000Y5398665D01*
X17620147Y5121426D01*
X17728320Y4860273D01*
X17885363Y4625241D01*
X18085241Y4425363D01*
X18320273Y4268320D01*
X18581426Y4160147D01*
X18607301Y4155000D01*
X18581426Y4149853D01*
X18320273Y4041680D01*
X18085241Y3884637D01*
X17885363Y3684759D01*
X17728320Y3449727D01*
X17620147Y3188574D01*
X17565000Y2911335D01*
X17565000Y2628665D01*
X17620147Y2351426D01*
X17728320Y2090273D01*
X17885363Y1855241D01*
X18085241Y1655363D01*
X18320273Y1498320D01*
X18581426Y1390147D01*
X18607301Y1385000D01*
X18581426Y1379853D01*
X18320273Y1271680D01*
X18085241Y1114637D01*
X17885363Y914759D01*
X17728320Y679727D01*
X17620147Y418574D01*
X17565000Y141335D01*
X17565000Y-141335D01*
X17620147Y-418574D01*
X17728320Y-679727D01*
X17885363Y-914759D01*
X18085241Y-1114637D01*
X18320273Y-1271680D01*
X18581426Y-1379853D01*
X18607301Y-1385000D01*
X18581426Y-1390147D01*
X18320273Y-1498320D01*
X18085241Y-1655363D01*
X17885363Y-1855241D01*
X17728320Y-2090273D01*
X17620147Y-2351426D01*
X17565000Y-2628665D01*
X17565000Y-2911335D01*
X17620147Y-3188574D01*
X17728320Y-3449727D01*
X17885363Y-3684759D01*
X18085241Y-3884637D01*
X18320273Y-4041680D01*
X18465725Y-4101928D01*
X18200000Y-4101928D01*
X18075518Y-4114188D01*
X17955820Y-4150498D01*
X17845506Y-4209463D01*
X17748815Y-4288815D01*
X17669463Y-4385506D01*
X17610498Y-4495820D01*
X17574188Y-4615518D01*
X17561928Y-4740000D01*
X12909396Y-4740000D01*
X12924637Y-4724759D01*
X13081680Y-4489727D01*
X13189853Y-4228574D01*
X13245000Y-3951335D01*
X13245000Y-3668665D01*
X13189853Y-3391426D01*
X13081680Y-3130273D01*
X12924637Y-2895241D01*
X12724759Y-2695363D01*
X12492241Y-2540000D01*
X12724759Y-2384637D01*
X12924637Y-2184759D01*
X13042798Y-2007918D01*
X13056183Y-2006600D01*
X13056186Y-2006600D01*
X13164399Y-1995942D01*
X13303249Y-1953822D01*
X13431213Y-1885424D01*
X13543375Y-1793375D01*
X13566445Y-1765264D01*
X14095273Y-1236437D01*
X14123374Y-1213375D01*
X14146437Y-1185273D01*
X14146442Y-1185268D01*
X14215424Y-1101213D01*
X14250494Y-1035601D01*
X14283822Y-973249D01*
X14325942Y-834399D01*
X14336600Y-726186D01*
X14336600Y-726185D01*
X14340164Y-690000D01*
X14336600Y-653814D01*
X14336600Y4783825D01*
X14340163Y4820001D01*
X14336600Y4856177D01*
X14336600Y4856186D01*
X14325942Y4964399D01*
X14283822Y5103249D01*
X14215424Y5231213D01*
X14123375Y5343375D01*
X14095269Y5366441D01*
X8356600Y11105109D01*
X8356600Y11831928D01*
X8620000Y11831928D01*
X8744482Y11844188D01*
X8864180Y11880498D01*
X8890000Y11894299D01*
X8915820Y11880498D01*
X9035518Y11844188D01*
X9160000Y11831928D01*
X11160000Y11831928D01*
X11284482Y11844188D01*
X11404180Y11880498D01*
X11514494Y11939463D01*
X11611185Y12018815D01*
X11690537Y12115506D01*
X11749502Y12225820D01*
X11785812Y12345518D01*
X11798072Y12470000D01*
X11798072Y12720128D01*
X18185000Y12720128D01*
X18185000Y12279872D01*
X18270890Y11848075D01*
X18439369Y11441331D01*
X18683962Y11075271D01*
X18995271Y10763962D01*
X19361331Y10519369D01*
X19768075Y10350890D01*
X20199872Y10265000D01*
X20640128Y10265000D01*
X21071925Y10350890D01*
X21478669Y10519369D01*
X21844729Y10763962D01*
X22156038Y11075271D01*
X22400631Y11441331D01*
X22569110Y11848075D01*
X22655000Y12279872D01*
X22655000Y12720128D01*
X22569110Y13151925D01*
X22400631Y13558669D01*
X22156038Y13924729D01*
X21844729Y14236038D01*
X21478669Y14480631D01*
X21071925Y14649110D01*
X20640128Y14735000D01*
X20199872Y14735000D01*
X19768075Y14649110D01*
X19361331Y14480631D01*
X18995271Y14236038D01*
X18683962Y13924729D01*
X18439369Y13558669D01*
X18270890Y13151925D01*
X18185000Y12720128D01*
X11798072Y12720128D01*
X11798072Y14470000D01*
X11785812Y14594482D01*
X11749502Y14714180D01*
X11735701Y14740000D01*
X28967721Y14740000D01*
X29065424Y14730420D01*
X29128356Y14711420D01*
X29186405Y14680555D01*
X29237343Y14639011D01*
X29279248Y14588356D01*
X29310515Y14530529D01*
X29329956Y14467728D01*
X29340000Y14372165D01*
X29340001Y-14367711D01*
X29330420Y-14465424D01*
X29311420Y-14528357D01*
X29280554Y-14586406D01*
X29239011Y-14637343D01*
X29188356Y-14679248D01*
X29130529Y-14710515D01*
X29067728Y-14729956D01*
X28972165Y-14740000D01*
X-28967721Y-14740000D01*
X-29065424Y-14730420D01*
X-29128357Y-14711420D01*
X-29186406Y-14680554D01*
X-29237343Y-14639011D01*
X-29279248Y-14588356D01*
X-29310515Y-14530529D01*
X-29329956Y-14467728D01*
X-29340000Y-14372165D01*
X-29340000Y-11227438D01*
X-18309800Y-11227438D01*
X-18309800Y-11412562D01*
X-18273684Y-11594129D01*
X-18202840Y-11765162D01*
X-18099990Y-11919087D01*
X-17969087Y-12049990D01*
X-17815162Y-12152840D01*
X-17644129Y-12223684D01*
X-17462562Y-12259800D01*
X-17277438Y-12259800D01*
X-17095871Y-12223684D01*
X-16924838Y-12152840D01*
X-16770913Y-12049990D01*
X-16640010Y-11919087D01*
X-16537160Y-11765162D01*
X-16466316Y-11594129D01*
X-16430200Y-11412562D01*
X-16430200Y-11227438D01*
X-16466316Y-11045871D01*
X-16471851Y-11032508D01*
X-7413321Y-1973979D01*
X-7355162Y-2012840D01*
X-7184129Y-2083684D01*
X-7002562Y-2119800D01*
X-6817438Y-2119800D01*
X-6635871Y-2083684D01*
X-6464838Y-2012840D01*
X-6310913Y-1909990D01*
X-6226600Y-1825677D01*
X-6226599Y-7503807D01*
X-6230164Y-7540000D01*
X-6217208Y-7671532D01*
X-6215941Y-7684399D01*
X-6173821Y-7823249D01*
X-6105423Y-7951213D01*
X-6013374Y-8063375D01*
X-5985268Y-8086441D01*
X-2967479Y-11104231D01*
X-2933684Y-11274129D01*
X-2862840Y-11445162D01*
X-2759990Y-11599087D01*
X-2629087Y-11729990D01*
X-2475162Y-11832840D01*
X-2304129Y-11903684D01*
X-2122562Y-11939800D01*
X-1937438Y-11939800D01*
X-1755871Y-11903684D01*
X-1584838Y-11832840D01*
X-1430913Y-11729990D01*
X-1300010Y-11599087D01*
X-1197160Y-11445162D01*
X-1126316Y-11274129D01*
X-1090200Y-11092562D01*
X-1090200Y-10907438D01*
X-1126316Y-10725871D01*
X-1197160Y-10554838D01*
X-1300010Y-10400913D01*
X-1430913Y-10270010D01*
X-1584838Y-10167160D01*
X-1755871Y-10096316D01*
X-1925769Y-10062521D01*
X-1987766Y-10000524D01*
X990000Y-10000524D01*
X990000Y-10199476D01*
X1028814Y-10394606D01*
X1104950Y-10578414D01*
X1215482Y-10743837D01*
X1356163Y-10884518D01*
X1521586Y-10995050D01*
X1533536Y-11000000D01*
X1521586Y-11004950D01*
X1356163Y-11115482D01*
X1215482Y-11256163D01*
X1104950Y-11421586D01*
X1028814Y-11605394D01*
X990000Y-11800524D01*
X990000Y-11999476D01*
X1028814Y-12194606D01*
X1104950Y-12378414D01*
X1215482Y-12543837D01*
X1356163Y-12684518D01*
X1521586Y-12795050D01*
X1705394Y-12871186D01*
X1900524Y-12910000D01*
X2099476Y-12910000D01*
X2294606Y-12871186D01*
X2478414Y-12795050D01*
X2643837Y-12684518D01*
X2784518Y-12543837D01*
X2895050Y-12378414D01*
X2935867Y-12279872D01*
X18185000Y-12279872D01*
X18185000Y-12720128D01*
X18270890Y-13151925D01*
X18439369Y-13558669D01*
X18683962Y-13924729D01*
X18995271Y-14236038D01*
X19361331Y-14480631D01*
X19768075Y-14649110D01*
X20199872Y-14735000D01*
X20640128Y-14735000D01*
X21071925Y-14649110D01*
X21478669Y-14480631D01*
X21844729Y-14236038D01*
X22156038Y-13924729D01*
X22400631Y-13558669D01*
X22569110Y-13151925D01*
X22655000Y-12720128D01*
X22655000Y-12279872D01*
X22569110Y-11848075D01*
X22400631Y-11441331D01*
X22156038Y-11075271D01*
X21844729Y-10763962D01*
X21478669Y-10519369D01*
X21071925Y-10350890D01*
X20640128Y-10265000D01*
X20199872Y-10265000D01*
X19768075Y-10350890D01*
X19361331Y-10519369D01*
X18995271Y-10763962D01*
X18683962Y-11075271D01*
X18439369Y-11441331D01*
X18270890Y-11848075D01*
X18185000Y-12279872D01*
X2935867Y-12279872D01*
X2971186Y-12194606D01*
X3010000Y-11999476D01*
X3010000Y-11800524D01*
X2971186Y-11605394D01*
X2895050Y-11421586D01*
X2784518Y-11256163D01*
X2643837Y-11115482D01*
X2478414Y-11004950D01*
X2466464Y-11000000D01*
X2478414Y-10995050D01*
X2643837Y-10884518D01*
X2784518Y-10743837D01*
X2895050Y-10578414D01*
X2971186Y-10394606D01*
X3010000Y-10199476D01*
X3010000Y-10000524D01*
X2971186Y-9805394D01*
X2895050Y-9621586D01*
X2784518Y-9456163D01*
X2643837Y-9315482D01*
X2478414Y-9204950D01*
X2294606Y-9128814D01*
X2099476Y-9090000D01*
X1900524Y-9090000D01*
X1705394Y-9128814D01*
X1521586Y-9204950D01*
X1356163Y-9315482D01*
X1215482Y-9456163D01*
X1104950Y-9621586D01*
X1028814Y-9805394D01*
X990000Y-10000524D01*
X-1987766Y-10000524D01*
X-4753400Y-7234891D01*
X-4753400Y-1309194D01*
X-4657160Y-1165162D01*
X-4586316Y-994129D01*
X-4550200Y-812562D01*
X-4550200Y-627438D01*
X-4586316Y-445871D01*
X-4657160Y-274838D01*
X-4760010Y-120913D01*
X-4890913Y9990D01*
X-5044838Y112840D01*
X-5215871Y183684D01*
X-5397438Y219800D01*
X-5582562Y219800D01*
X-5764129Y183684D01*
X-5935162Y112840D01*
X-6089087Y9990D01*
X-6219990Y-120913D01*
X-6322840Y-274838D01*
X-6377084Y-405796D01*
X-6464838Y-347160D01*
X-6635871Y-276316D01*
X-6817438Y-240200D01*
X-7002562Y-240200D01*
X-7184129Y-276316D01*
X-7355162Y-347160D01*
X-7499194Y-443400D01*
X-7624866Y-443400D01*
X-7661052Y-439836D01*
X-7697238Y-443400D01*
X-7805451Y-454058D01*
X-7944301Y-496178D01*
X-8033878Y-544058D01*
X-8072265Y-564576D01*
X-8138322Y-618788D01*
X-8184427Y-656625D01*
X-8207493Y-684731D01*
X-17865268Y-10342507D01*
X-17893374Y-10365573D01*
X-17985424Y-10477735D01*
X-18053822Y-10605699D01*
X-18083887Y-10704810D01*
X-18099990Y-10720913D01*
X-18202840Y-10874838D01*
X-18273684Y-11045871D01*
X-18309800Y-11227438D01*
X-29340000Y-11227438D01*
X-29340000Y12006809D01*
X-29294494Y11969463D01*
X-29184180Y11910498D01*
X-29064482Y11874188D01*
X-28940000Y11861928D01*
X-28225750Y11865000D01*
X-28067000Y12023750D01*
X-28067000Y13373000D01*
X-27813000Y13373000D01*
X-27813000Y12023750D01*
X-27654250Y11865000D01*
X-26940000Y11861928D01*
X-26815518Y11874188D01*
X-26695820Y11910498D01*
X-26585506Y11969463D01*
X-26488815Y12048815D01*
X-26409463Y12145506D01*
X-26350498Y12255820D01*
X-26314188Y12375518D01*
X-26301928Y12500000D01*
X-26305000Y13214250D01*
X-26463750Y13373000D01*
X-27813000Y13373000D01*
X-28067000Y13373000D01*
X-28087000Y13373000D01*
X-28087000Y13627000D01*
X-28067000Y13627000D01*
X-28067000Y13647000D01*
X-27813000Y13647000D01*
X-27813000Y13627000D01*
X-26463750Y13627000D01*
X-26305000Y13785750D01*
X-26301928Y14500000D01*
X-26314188Y14624482D01*
X-26349230Y14740000D01*
X-21910770Y14740000D01*
X-21945812Y14624482D01*
G37*
G04 #@! TD.AperFunction*
D18*
X-11955268Y9397945D02*
X-11983375Y9374878D01*
X-12075424Y9262716D01*
X-12143822Y9134752D01*
X-12184524Y9000577D01*
X-12192376Y9005824D01*
X-12398933Y9091383D01*
X-12618212Y9135000D01*
X-12841788Y9135000D01*
X-13061067Y9091383D01*
X-13172774Y9045112D01*
X-13255820Y9089502D01*
X-13375518Y9125812D01*
X-13500000Y9138072D01*
X-13714250Y9135000D01*
X-13873000Y8976250D01*
X-13873000Y8127000D01*
X-13861974Y8127000D01*
X-13865000Y8111788D01*
X-13865000Y7888212D01*
X-13861974Y7873000D01*
X-13873000Y7873000D01*
X-13873000Y7023750D01*
X-13714250Y6865000D01*
X-13500000Y6861928D01*
X-13466600Y6865218D01*
X-13466600Y6406184D01*
X-13470164Y6370000D01*
X-13466600Y6333817D01*
X-13466600Y6333815D01*
X-13455942Y6225602D01*
X-13413822Y6086752D01*
X-13345424Y5958788D01*
X-13253375Y5846626D01*
X-13225268Y5823559D01*
X-12336443Y4934733D01*
X-12313375Y4906625D01*
X-12201213Y4814576D01*
X-12148873Y4786600D01*
X-15211577Y4786600D01*
X-15166316Y4895871D01*
X-15130200Y5077438D01*
X-15130200Y5262562D01*
X-15166316Y5444129D01*
X-15237160Y5615162D01*
X-15333400Y5759194D01*
X-15333400Y7500000D01*
X-15138072Y7500000D01*
X-15125812Y7375518D01*
X-15089502Y7255820D01*
X-15030537Y7145506D01*
X-14951185Y7048815D01*
X-14854494Y6969463D01*
X-14744180Y6910498D01*
X-14624482Y6874188D01*
X-14500000Y6861928D01*
X-14285750Y6865000D01*
X-14127000Y7023750D01*
X-14127000Y7873000D01*
X-14976250Y7873000D01*
X-15135000Y7714250D01*
X-15138072Y7500000D01*
X-15333400Y7500000D01*
X-15333400Y8500000D01*
X-15138072Y8500000D01*
X-15135000Y8285750D01*
X-14976250Y8127000D01*
X-14127000Y8127000D01*
X-14127000Y8976250D01*
X-14285750Y9135000D01*
X-14500000Y9138072D01*
X-14624482Y9125812D01*
X-14744180Y9089502D01*
X-14854494Y9030537D01*
X-14951185Y8951185D01*
X-15030537Y8854494D01*
X-15089502Y8744180D01*
X-15125812Y8624482D01*
X-15138072Y8500000D01*
X-15333400Y8500000D01*
X-15333400Y9164891D01*
X-15014890Y9483400D01*
X-11869813Y9483400D01*
X-11955268Y9397945D01*
G04 #@! TA.AperFunction,Conductor*
D19*
G36*
X-11955268Y9397945D02*
G01*
X-11983375Y9374878D01*
X-12075424Y9262716D01*
X-12143822Y9134752D01*
X-12184524Y9000577D01*
X-12192376Y9005824D01*
X-12398933Y9091383D01*
X-12618212Y9135000D01*
X-12841788Y9135000D01*
X-13061067Y9091383D01*
X-13172774Y9045112D01*
X-13255820Y9089502D01*
X-13375518Y9125812D01*
X-13500000Y9138072D01*
X-13714250Y9135000D01*
X-13873000Y8976250D01*
X-13873000Y8127000D01*
X-13861974Y8127000D01*
X-13865000Y8111788D01*
X-13865000Y7888212D01*
X-13861974Y7873000D01*
X-13873000Y7873000D01*
X-13873000Y7023750D01*
X-13714250Y6865000D01*
X-13500000Y6861928D01*
X-13466600Y6865218D01*
X-13466600Y6406184D01*
X-13470164Y6370000D01*
X-13466600Y6333817D01*
X-13466600Y6333815D01*
X-13455942Y6225602D01*
X-13413822Y6086752D01*
X-13345424Y5958788D01*
X-13253375Y5846626D01*
X-13225268Y5823559D01*
X-12336443Y4934733D01*
X-12313375Y4906625D01*
X-12201213Y4814576D01*
X-12148873Y4786600D01*
X-15211577Y4786600D01*
X-15166316Y4895871D01*
X-15130200Y5077438D01*
X-15130200Y5262562D01*
X-15166316Y5444129D01*
X-15237160Y5615162D01*
X-15333400Y5759194D01*
X-15333400Y7500000D01*
X-15138072Y7500000D01*
X-15125812Y7375518D01*
X-15089502Y7255820D01*
X-15030537Y7145506D01*
X-14951185Y7048815D01*
X-14854494Y6969463D01*
X-14744180Y6910498D01*
X-14624482Y6874188D01*
X-14500000Y6861928D01*
X-14285750Y6865000D01*
X-14127000Y7023750D01*
X-14127000Y7873000D01*
X-14976250Y7873000D01*
X-15135000Y7714250D01*
X-15138072Y7500000D01*
X-15333400Y7500000D01*
X-15333400Y8500000D01*
X-15138072Y8500000D01*
X-15135000Y8285750D01*
X-14976250Y8127000D01*
X-14127000Y8127000D01*
X-14127000Y8976250D01*
X-14285750Y9135000D01*
X-14500000Y9138072D01*
X-14624482Y9125812D01*
X-14744180Y9089502D01*
X-14854494Y9030537D01*
X-14951185Y8951185D01*
X-15030537Y8854494D01*
X-15089502Y8744180D01*
X-15125812Y8624482D01*
X-15138072Y8500000D01*
X-15333400Y8500000D01*
X-15333400Y9164891D01*
X-15014890Y9483400D01*
X-11869813Y9483400D01*
X-11955268Y9397945D01*
G37*
G04 #@! TD.AperFunction*
D18*
X-9209502Y14714180D02*
X-9245812Y14594482D01*
X-9258072Y14470000D01*
X-9258072Y12470000D01*
X-9245812Y12345518D01*
X-9209502Y12225820D01*
X-9150537Y12115506D01*
X-9071185Y12018815D01*
X-8974494Y11939463D01*
X-8864180Y11880498D01*
X-8744482Y11844188D01*
X-8620000Y11831928D01*
X-8356600Y11831928D01*
X-8356600Y11576184D01*
X-8360164Y11540000D01*
X-8356600Y11503817D01*
X-8356600Y11503815D01*
X-8345942Y11395602D01*
X-8303822Y11256752D01*
X-8252000Y11159800D01*
X-8235424Y11128788D01*
X-8198049Y11083247D01*
X-8143375Y11016626D01*
X-8115268Y10993559D01*
X-8078309Y10956600D01*
X-15283825Y10956600D01*
X-15320001Y10960163D01*
X-15356177Y10956600D01*
X-15356186Y10956600D01*
X-15464399Y10945942D01*
X-15603249Y10903822D01*
X-15731213Y10835424D01*
X-15843375Y10743375D01*
X-15866441Y10715269D01*
X-16565268Y10016441D01*
X-16593375Y9993374D01*
X-16685424Y9881212D01*
X-16753822Y9753248D01*
X-16795942Y9614398D01*
X-16804720Y9525268D01*
X-16810164Y9470000D01*
X-16806600Y9433817D01*
X-16806600Y8896185D01*
X-16806599Y5759196D01*
X-16902840Y5615162D01*
X-16973684Y5444129D01*
X-16990065Y5361775D01*
X-17063400Y5435109D01*
X-17063400Y11861928D01*
X-16800000Y11861928D01*
X-16675518Y11874188D01*
X-16555820Y11910498D01*
X-16445506Y11969463D01*
X-16348815Y12048815D01*
X-16269463Y12145506D01*
X-16210498Y12255820D01*
X-16174188Y12375518D01*
X-16161928Y12500000D01*
X-16161928Y14500000D01*
X-16174188Y14624482D01*
X-16209230Y14740000D01*
X-9195701Y14740000D01*
X-9209502Y14714180D01*
G04 #@! TA.AperFunction,Conductor*
D19*
G36*
X-9209502Y14714180D02*
G01*
X-9245812Y14594482D01*
X-9258072Y14470000D01*
X-9258072Y12470000D01*
X-9245812Y12345518D01*
X-9209502Y12225820D01*
X-9150537Y12115506D01*
X-9071185Y12018815D01*
X-8974494Y11939463D01*
X-8864180Y11880498D01*
X-8744482Y11844188D01*
X-8620000Y11831928D01*
X-8356600Y11831928D01*
X-8356600Y11576184D01*
X-8360164Y11540000D01*
X-8356600Y11503817D01*
X-8356600Y11503815D01*
X-8345942Y11395602D01*
X-8303822Y11256752D01*
X-8252000Y11159800D01*
X-8235424Y11128788D01*
X-8198049Y11083247D01*
X-8143375Y11016626D01*
X-8115268Y10993559D01*
X-8078309Y10956600D01*
X-15283825Y10956600D01*
X-15320001Y10960163D01*
X-15356177Y10956600D01*
X-15356186Y10956600D01*
X-15464399Y10945942D01*
X-15603249Y10903822D01*
X-15731213Y10835424D01*
X-15843375Y10743375D01*
X-15866441Y10715269D01*
X-16565268Y10016441D01*
X-16593375Y9993374D01*
X-16685424Y9881212D01*
X-16753822Y9753248D01*
X-16795942Y9614398D01*
X-16804720Y9525268D01*
X-16810164Y9470000D01*
X-16806600Y9433817D01*
X-16806600Y8896185D01*
X-16806599Y5759196D01*
X-16902840Y5615162D01*
X-16973684Y5444129D01*
X-16990065Y5361775D01*
X-17063400Y5435109D01*
X-17063400Y11861928D01*
X-16800000Y11861928D01*
X-16675518Y11874188D01*
X-16555820Y11910498D01*
X-16445506Y11969463D01*
X-16348815Y12048815D01*
X-16269463Y12145506D01*
X-16210498Y12255820D01*
X-16174188Y12375518D01*
X-16161928Y12500000D01*
X-16161928Y14500000D01*
X-16174188Y14624482D01*
X-16209230Y14740000D01*
X-9195701Y14740000D01*
X-9209502Y14714180D01*
G37*
G04 #@! TD.AperFunction*
M02*
